<svg width="60" height="60" viewBox="0 0 60 60" fill="none" xmlns="http://www.w3.org/2000/svg">
<rect width="60" height="60" rx="30" fill="#FF9846"/>
<path d="M30 14C23.9346 14 19 18.9346 19 24.9999C19 27.4373 20.435 31.1441 23.516 36.6653C25.6184 40.4327 27.7112 43.6148 27.7995 43.7488L29.312 46.0415C29.4646 46.2727 29.7229 46.4119 30 46.4119C30.2771 46.4119 30.5354 46.2727 30.688 46.0415L32.2005 43.7489C32.2879 43.6164 34.3654 40.4618 36.484 36.6653C39.565 31.1444 41 27.4376 41 24.9999C41 18.9346 36.0654 14 30 14ZM35.0447 35.8621C32.9555 39.6055 30.9109 42.7105 30.8247 42.841L30 44.0911L29.1756 42.8414C29.0889 42.7098 27.0286 39.5769 24.9553 35.8621C22.0974 30.7406 20.6483 27.086 20.6483 24.9999C20.6483 19.8434 24.8434 15.6483 30 15.6483C35.1566 15.6483 39.3517 19.8434 39.3517 24.9999C39.3517 27.0863 37.9026 30.7407 35.0447 35.8621Z" fill="#F2F2F2"/>
<path d="M30.0002 18.8324C26.6373 18.8324 23.9014 21.5683 23.9014 24.9312C23.9014 28.2941 26.6373 31.0301 30.0002 31.0301C33.3632 31.0301 36.0991 28.2941 36.0991 24.9312C36.0991 21.5683 33.3632 18.8324 30.0002 18.8324ZM30.0002 29.3818C27.5462 29.3818 25.5497 27.3853 25.5497 24.9312C25.5497 22.4772 27.5462 20.4807 30.0002 20.4807C32.4544 20.4807 34.4508 22.4772 34.4508 24.9312C34.4508 27.3853 32.4544 29.3818 30.0002 29.3818Z" fill="#F2F2F2"/>
</svg>
